<?xml version="1.0" standalone="no"?>
<!DOCTYPE svg PUBLIC "-//W3C//DTD SVG 20010904//EN"
 "http://www.w3.org/TR/2001/REC-SVG-20010904/DTD/svg10.dtd">
<svg version="1.0" xmlns="http://www.w3.org/2000/svg"
 width="1024.000000pt" height="1024.000000pt" viewBox="0 0 1024.000000 1024.000000"
 preserveAspectRatio="xMidYMid meet">
<metadata>
Created by potrace 1.14, written by Peter Selinger 2001-2017
</metadata>
<g transform="translate(0.000000,1024.000000) scale(0.100000,-0.100000)"
fill="#000000" stroke="none">
<path d="M0 5120 l0 -5120 5120 0 5120 0 0 5120 0 5120 -5120 0 -5120 0 0
-5120z m8557 3885 c-4 -128 -10 -191 -26 -254 -141 -555 -609 -879 -1380 -956
-120 -12 -289 -15 -770 -15 -795 0 -1092 -19 -1468 -96 -597 -120 -973 -358
-1122 -710 -55 -130 -76 -302 -50 -426 36 -176 173 -336 375 -440 131 -68 291
-120 969 -313 658 -187 890 -259 1085 -337 699 -278 1115 -746 1220 -1373 29
-168 24 -430 -9 -595 -201 -980 -1119 -1720 -2336 -1884 -600 -81 -1198 -7
-1643 205 l-104 49 39 48 c21 26 54 67 74 90 l36 42 74 -34 c97 -45 281 -101
394 -122 50 -9 151 -18 225 -20 l135 -4 -105 38 c-58 21 -124 49 -148 61 -43
22 -122 87 -122 100 0 4 120 7 268 7 213 -1 287 3 367 17 188 33 382 92 515
156 77 37 75 37 -56 11 -56 -11 -171 -27 -255 -36 -282 -30 -686 -5 -909 57
-41 11 -85 23 -97 26 -13 3 -23 8 -23 12 0 3 20 29 45 57 l44 51 78 -18 c183
-44 508 -50 743 -14 304 46 597 158 845 322 320 212 524 478 616 803 20 73 24
107 24 240 0 205 -28 308 -126 471 l-51 84 26 80 c35 111 39 160 22 244 -20
94 -56 158 -140 248 -81 87 -183 156 -313 213 -81 36 -279 100 -307 100 -5 0
27 -22 72 -50 318 -192 493 -403 479 -576 -2 -33 -10 -70 -16 -82 -11 -21 -12
-21 -57 13 -181 139 -356 204 -1084 405 -969 268 -1159 338 -1471 541 -94 62
-151 110 -249 207 -223 224 -349 452 -412 745 -31 145 -31 399 0 543 44 205
115 372 240 564 319 492 910 851 1622 985 258 48 242 48 1725 55 1527 7 1442
3 1679 65 329 85 587 270 759 542 62 98 61 102 54 -142z m-4658 -4535 c222
-17 401 -63 401 -103 0 -7 -30 -36 -67 -65 l-68 -52 -125 -4 c-434 -14 -841
-248 -1037 -596 -84 -148 -122 -291 -130 -487 l-6 -132 -68 -86 -68 -87 -16
54 c-29 97 -40 245 -27 365 29 277 135 493 361 737 l46 49 -50 -28 c-195 -109
-360 -283 -467 -491 -137 -267 -155 -582 -47 -823 25 -55 27 -66 15 -80 -7 -9
-78 -95 -156 -191 -174 -213 -200 -243 -205 -238 -3 2 -27 51 -54 109 -52 111
-92 244 -112 374 -17 109 -14 351 5 462 67 391 318 763 676 1002 357 239 765
345 1199 311z m773 -183 c-20 -24 -121 -235 -160 -333 -82 -206 -134 -418
-182 -745 -18 -118 -39 -230 -48 -249 -15 -30 -24 -36 -72 -46 -104 -22 -231
-80 -318 -145 -46 -35 -53 -38 -59 -22 -48 135 -107 228 -195 308 -75 67 -155
108 -253 130 -41 10 -75 21 -75 26 0 5 8 31 18 57 11 27 38 113 62 191 59 193
43 180 360 306 391 155 617 285 850 488 41 35 77 61 78 56 2 -6 -1 -15 -6 -22z
m-1344 -1317 c68 -24 155 -82 184 -122 16 -23 18 -34 10 -51 -12 -27 -76 -105
-252 -312 -74 -87 -144 -169 -155 -182 l-21 -25 -60 59 c-56 55 -184 133 -217
133 -34 0 -26 24 30 93 33 40 117 144 187 232 70 88 137 168 148 178 27 22 75
22 146 -3z m292 -330 c0 -8 -33 -53 -72 -100 -225 -268 -285 -339 -317 -373
-35 -37 -35 -37 -47 -15 -10 19 -5 29 50 93 33 39 130 153 215 253 148 175
171 194 171 142z m-855 -406 c61 -30 145 -113 145 -141 0 -16 -66 -97 -509
-623 -81 -96 -184 -221 -230 -278 -46 -56 -96 -109 -111 -117 -44 -23 -128
-19 -175 8 -44 24 -85 92 -85 139 0 50 26 90 170 263 78 94 257 309 398 479
l256 308 43 -5 c24 -2 68 -17 98 -33z m248 -274 c6 -22 -22 -59 -173 -235 -68
-78 -563 -669 -666 -793 -15 -18 -26 -23 -42 -18 -22 7 -22 8 10 49 18 23 80
98 137 166 58 68 139 165 181 216 188 231 532 635 540 635 4 0 10 -9 13 -20z"/>
<path d="M3530 7727 c-129 -71 -199 -124 -306 -233 -175 -176 -281 -381 -314
-605 -17 -115 -8 -302 18 -391 76 -255 271 -468 560 -612 83 -42 173 -78 178
-73 2 2 -32 32 -77 67 -158 124 -290 275 -373 423 -19 34 -52 112 -72 172 -35
102 -38 120 -42 255 -7 218 23 360 113 542 71 144 132 226 276 371 75 75 136
137 135 137 -1 0 -44 -24 -96 -53z"/>
<path d="M3210 5830 c24 -45 110 -148 158 -188 285 -238 763 -393 1202 -391
101 1 136 4 115 10 -16 5 -106 29 -200 55 -509 138 -707 206 -944 323 -113 55
-220 121 -307 188 l-37 28 13 -25z"/>
<path d="M4000 5768 c237 -145 690 -299 1080 -367 230 -40 285 -49 289 -46 7
7 -162 87 -275 130 -208 81 -397 134 -940 264 -94 23 -175 41 -180 41 -5 0 7
-10 26 -22z"/>
</g>
</svg>
